<svg height="1038" width="720" xmlns="http://www.w3.org/2000/svg">
<rect height="1038" fill="#555" width="720"></rect>
<text fill="#7f7" font-family="Courier New" font-size="12" xml:space="preserve">
<tspan x="10" y="26">└─┬ horizon@2.0.0 </tspan>
<tspan x="10" y="42">  ├─┬ @horizon/server@2.0.0 </tspan>
<tspan x="10" y="58">  │ ├─┬ @horizon/client@2.0.0 </tspan>
<tspan x="10" y="74">  │ │ ├─┬ babel-runtime@6.23.0 </tspan>
<tspan x="10" y="90">  │ │ │ └── regenerator-runtime@0.10.3 </tspan>
<tspan x="10" y="106">  │ │ ├── core-js@2.4.1 </tspan>
<tspan x="10" y="122">  │ │ ├── deep-equal@1.0.1 </tspan>
<tspan x="10" y="138">  │ │ ├── es6-promise@3.3.1 </tspan>
<tspan x="10" y="154">  │ │ ├─┬ is-plain-object@2.0.1 </tspan>
<tspan x="10" y="170">  │ │ │ └── isobject@1.0.2 </tspan>
<tspan x="10" y="186">  │ │ ├─┬ rxjs@5.0.0-beta.11 </tspan>
<tspan x="10" y="202">  │ │ │ └── symbol-observable@1.0.4 </tspan>
<tspan x="10" y="218">  │ │ └─┬ snake-case@2.1.0 </tspan>
<tspan x="10" y="234">  │ │   └─┬ no-case@2.3.1 </tspan>
<tspan x="10" y="250">  │ │     └── lower-case@1.1.4 </tspan>
<tspan x="10" y="266">  │ ├── cookie@0.2.4 </tspan>
<tspan x="10" y="282">  │ ├── oauth@0.9.15 </tspan>
<tspan x="10" y="298">  │ ├─┬ pem@1.9.4 </tspan>
<tspan x="10" y="314">  │ │ ├── os-tmpdir@1.0.2 </tspan>
<tspan x="10" y="330">  │ │ └─┬ which@1.2.14 </tspan>
<tspan x="10" y="346">  │ │   └── isexe@2.0.0 </tspan>
<tspan x="10" y="362">  │ ├─┬ winston@2.3.1 </tspan>
<tspan x="10" y="378">  │ │ ├── async@1.0.0 </tspan>
<tspan x="10" y="394">  │ │ ├── colors@1.0.3 </tspan>
<tspan x="10" y="410">  │ │ ├── cycle@1.0.3 </tspan>
<tspan x="10" y="426">  │ │ ├── eyes@0.1.8 </tspan>
<tspan x="10" y="442">  │ │ ├── isstream@0.1.2 </tspan>
<tspan x="10" y="458">  │ │ └── stack-trace@0.0.9 </tspan>
<tspan x="10" y="474">  │ └─┬ ws@1.1.4 </tspan>
<tspan x="10" y="490">  │   ├── options@0.0.6 </tspan>
<tspan x="10" y="506">  │   └── ultron@1.0.2 </tspan>
<tspan x="10" y="522">  ├─┬ argparse@1.0.9 </tspan>
<tspan x="10" y="538">  │ └── sprintf-js@1.0.3 </tspan>
<tspan x="10" y="554">  ├── bluebird@3.5.0 </tspan>
<tspan x="10" y="570">  ├─┬ chalk@1.1.3 </tspan>
<tspan x="10" y="586">  │ ├── ansi-styles@2.2.1 </tspan>
<tspan x="10" y="602">  │ ├── escape-string-regexp@1.0.5 </tspan>
<tspan x="10" y="618">  │ ├─┬ has-ansi@2.0.0 </tspan>
<tspan x="10" y="634">  │ │ └── ansi-regex@2.1.1 </tspan>
<tspan x="10" y="650">  │ ├── strip-ansi@3.0.1 </tspan>
<tspan x="10" y="666">  │ └── supports-color@2.0.0 </tspan>
<tspan x="10" y="682">  ├─┬ hasbin@1.2.3 </tspan>
<tspan x="10" y="698">  │ └── async@1.5.2 </tspan>
<tspan x="10" y="714">  ├─┬ joi@8.4.2 </tspan>
<tspan x="10" y="730">  │ ├── hoek@4.1.1 </tspan>
<tspan x="10" y="746">  │ ├── isemail@2.2.1 </tspan>
<tspan x="10" y="762">  │ ├── moment@2.18.1 </tspan>
<tspan x="10" y="778">  │ └── topo@2.0.2 </tspan>
<tspan x="10" y="794">  ├─┬ jsonwebtoken@5.7.0 </tspan>
<tspan x="10" y="810">  │ ├─┬ jws@3.1.4 </tspan>
<tspan x="10" y="826">  │ │ ├── base64url@2.0.0 </tspan>
<tspan x="10" y="842">  │ │ ├─┬ jwa@1.1.5 </tspan>
<tspan x="10" y="858">  │ │ │ ├── buffer-equal-constant-time@1.0.1 </tspan>
<tspan x="10" y="874">  │ │ │ └── ecdsa-sig-formatter@1.0.9 </tspan>
<tspan x="10" y="890">  │ │ └── safe-buffer@5.0.1 </tspan>
<tspan x="10" y="906">  │ ├── ms@0.7.3 </tspan>
<tspan x="10" y="922">  │ └── xtend@4.0.1 </tspan>
<tspan x="10" y="938">  ├─┬ mime-types@2.1.15 </tspan>
<tspan x="10" y="954">  │ └── mime-db@1.27.0 </tspan>
<tspan x="10" y="970">  ├── open@0.0.5 </tspan>
<tspan x="10" y="986">  ├─┬ rethinkdb@2.3.3 </tspan>
<tspan x="10" y="1002">  │ └── bluebird@2.11.0 </tspan>
<tspan x="10" y="1018">  └── toml@2.3.2</tspan>
</text>
</svg>
