<svg height="2174" width="720" xmlns="http://www.w3.org/2000/svg">
<rect height="2174" fill="#555" width="720"></rect>
<text fill="#7f7" font-family="Courier New" font-size="12" xml:space="preserve">
<tspan x="10" y="26"></tspan>
<tspan x="10" y="42">&gt; npmdoc-horizon@0.0.1 test /home/travis/build/npmdoc/node-npmdoc-horizon</tspan>
<tspan x="10" y="58">&gt; (set -e; export PORT=$(utility2 shServerPortRandom); utility2 test test.js)</tspan>
<tspan x="10" y="74"></tspan>
<tspan x="10" y="90"></tspan>
<tspan x="10" y="106">[MODE_BUILD=npmTest] - 2017-04-07T02:53:18Z - npm-testing /home/travis/build/npmdoc/node-npmdoc-\</tspan>
<tspan x="10" y="122">horizon</tspan>
<tspan x="10" y="138"></tspan>
<tspan x="10" y="154"></tspan>
<tspan x="10" y="170">covering $ /home/travis/.nvm/versions/node/v6.10.2/bin/node /home/travis/build/npmdoc/node-npmdo\</tspan>
<tspan x="10" y="186">c-horizon/test.js</tspan>
<tspan x="10" y="202">merging file:///home/travis/build/npmdoc/node-npmdoc-horizon/tmp/build/test-report.json to test-\</tspan>
<tspan x="10" y="218">report</tspan>
<tspan x="10" y="234">&gt; server listening on http-port 52104</tspan>
<tspan x="10" y="250">Usage: test.js subcommand [args...]</tspan>
<tspan x="10" y="266">Available subcommands:</tspan>
<tspan x="10" y="282">  init - Initialize a horizon app directory</tspan>
<tspan x="10" y="298">  serve - Serve a Horizon app</tspan>
<tspan x="10" y="314">  version - Print the version number of horizon</tspan>
<tspan x="10" y="330">  create-cert - Generate a certificate</tspan>
<tspan x="10" y="346">  make-token - Generate a token to log in as a user</tspan>
<tspan x="10" y="362">  schema - Apply and save the schema from a horizon database</tspan>
<tspan x="10" y="378">  migrate - migrate an older version of horizon to a newer one</tspan>
<tspan x="10" y="394">No such subcommand undefined, run with -h for help</tspan>
<tspan x="10" y="410">Cannot read property 'run' of undefined</tspan>
<tspan x="10" y="426">created apidoc file:///home/travis/build/npmdoc/node-npmdoc-horizon/tmp/build/apidoc.html</tspan>
<tspan x="10" y="442"></tspan>
<tspan x="10" y="458"></tspan>
<tspan x="10" y="474">browserTest - created electron entry-page /home/travis/build/npmdoc/node-npmdoc-horizon/tmp/elec\</tspan>
<tspan x="10" y="490">tron.15b465493f70.a6242c9904684.html</tspan>
<tspan x="10" y="506"></tspan>
<tspan x="10" y="522">[node test-case 1 of 6 passed] - testCase_buildLib_default</tspan>
<tspan x="10" y="538">[node test-case 2 of 6 passed] - testCase_buildReadme_default</tspan>
<tspan x="10" y="554">[node test-case 3 of 6 passed] - testCase_buildTest_default</tspan>
<tspan x="10" y="570"></tspan>
<tspan x="10" y="586">browserTest - created electron entry-page /home/travis/build/npmdoc/node-npmdoc-horizon/tmp/elec\</tspan>
<tspan x="10" y="602">tron.15b4654942f0.02b75752657df.html</tspan>
<tspan x="10" y="618"></tspan>
<tspan x="10" y="634">Xlib:  extension "RANDR" missing on display ":99.0".</tspan>
<tspan x="10" y="650">Xlib:  extension "RANDR" missing on display ":99.0".</tspan>
<tspan x="10" y="666">merging file:///home/travis/build/npmdoc/node-npmdoc-horizon/tmp/build/test-report.json to test-\</tspan>
<tspan x="10" y="682">report</tspan>
<tspan x="10" y="698">Xlib:  extension "RANDR" missing on display ":99.0".</tspan>
<tspan x="10" y="714">&gt; server listening on http-port 62052</tspan>
<tspan x="10" y="730">[4907:0407/025320:WARNING:audio_manager.cc(314)] Multiple instances of AudioManager detected</tspan>
<tspan x="10" y="746">[4907:0407/025320:WARNING:audio_manager.cc(275)] Multiple instances of AudioManager detected</tspan>
<tspan x="10" y="762">[4945:0407/025320:ERROR:sandbox_linux.cc(343)] InitializeSandbox() called with multiple threads \</tspan>
<tspan x="10" y="778">in process gpu-process. </tspan>
<tspan x="10" y="794">merging file:///home/travis/build/npmdoc/node-npmdoc-horizon/tmp/build/test-report.json to test-\</tspan>
<tspan x="10" y="810">report</tspan>
<tspan x="10" y="826">[4907:0407/025320:ERROR:browser_gpu_channel_host_factory.cc(131)] Failed to create channel.</tspan>
<tspan x="10" y="842">Xlib:  extension "RANDR" missing on display ":99.0".</tspan>
<tspan x="10" y="858">[4920:0407/025320:WARNING:audio_manager.cc(314)] Multiple instances of AudioManager detected</tspan>
<tspan x="10" y="874">[4920:0407/025320:WARNING:audio_manager.cc(275)] Multiple instances of AudioManager detected</tspan>
<tspan x="10" y="890">[4979:0407/025320:ERROR:sandbox_linux.cc(343)] InitializeSandbox() called with multiple threads \</tspan>
<tspan x="10" y="906">in process gpu-process. </tspan>
<tspan x="10" y="922"></tspan>
<tspan x="10" y="938">browserTest - opened url /home/travis/build/npmdoc/node-npmdoc-horizon/tmp/build/apidoc.html</tspan>
<tspan x="10" y="954"></tspan>
<tspan x="10" y="970"></tspan>
<tspan x="10" y="986">browserTest - opened url http://127.0.0.1:52104?modeTest=1</tspan>
<tspan x="10" y="1002"></tspan>
<tspan x="10" y="1018">[4920:0407/025322:INFO:CONSOLE(250)] "----------|-----------|-----------|-----------|-----------\</tspan>
<tspan x="10" y="1034">|</tspan>
<tspan x="10" y="1050">File      |   % Stmts |% Branches |   % Funcs |   % Lines |</tspan>
<tspan x="10" y="1066">----------|-----------|-----------|-----------|-----------|</tspan>
<tspan x="10" y="1082">----------|-----------|-----------|-----------|-----------|</tspan>
<tspan x="10" y="1098">All files |       100 |       100 |       100 |       100 |</tspan>
<tspan x="10" y="1114">----------|-----------|-----------|-----------|-----------|</tspan>
<tspan x="10" y="1130">", source: file:///home/travis/build/npmdoc/node-npmdoc-horizon/tmp/electron.15b4654942f0.02b757\</tspan>
<tspan x="10" y="1146">52657df.html (250)</tspan>
<tspan x="10" y="1162">[4920:0407/025322:INFO:CONSOLE(250)] "created coverage file:///tmp/build/coverage.html/index.htm\</tspan>
<tspan x="10" y="1178">l", source: file:///home/travis/build/npmdoc/node-npmdoc-horizon/tmp/electron.15b4654942f0.02b75\</tspan>
<tspan x="10" y="1194">752657df.html (250)</tspan>
<tspan x="10" y="1210">[node test-case 4 of 6 passed] - testCase_buildApp_default</tspan>
<tspan x="10" y="1226"></tspan>
<tspan x="10" y="1242">browserTest - created screenCapture file:///home/travis/build/npmdoc/node-npmdoc-horizon/tmp/bui\</tspan>
<tspan x="10" y="1258">ld/screenCapture.npmTest.browser._2Fhome_2Ftravis_2Fbuild_2Fnpmdoc_2Fnode-npmdoc-horizon_2Ftmp_2\</tspan>
<tspan x="10" y="1274">Fbuild_2Fapidoc.html.png</tspan>
<tspan x="10" y="1290"></tspan>
<tspan x="10" y="1306">browserTest - created screenCapture file:///home/travis/build/npmdoc/node-npmdoc-horizon/tmp/bui\</tspan>
<tspan x="10" y="1322">ld/screenCapture.npmTest.browser._2Fhome_2Ftravis_2Fbuild_2Fnpmdoc_2Fnode-npmdoc-horizon_2Ftmp_2\</tspan>
<tspan x="10" y="1338">Fbuild_2Fapidoc.html.html</tspan>
<tspan x="10" y="1354"></tspan>
<tspan x="10" y="1370">browserTest - exit-code 0 - /home/travis/build/npmdoc/node-npmdoc-horizon/tmp/build/apidoc.html</tspan>
<tspan x="10" y="1386"></tspan>
<tspan x="10" y="1402">[node test-case 5 of 6 passed] - testCase_buildApidoc_default</tspan>
<tspan x="10" y="1418"></tspan>
<tspan x="10" y="1434">browserTest - created screenCapture file:///home/travis/build/npmdoc/node-npmdoc-horizon/tmp/bui\</tspan>
<tspan x="10" y="1450">ld/screenCapture.npmTest.browser..png</tspan>
<tspan x="10" y="1466"></tspan>
<tspan x="10" y="1482">browserTest - created screenCapture file:///home/travis/build/npmdoc/node-npmdoc-horizon/tmp/bui\</tspan>
<tspan x="10" y="1498">ld/screenCapture.npmTest.browser..html</tspan>
<tspan x="10" y="1514"></tspan>
<tspan x="10" y="1530">browserTest - exit-code 0 - http://127.0.0.1:52104?modeTest=1</tspan>
<tspan x="10" y="1546"></tspan>
<tspan x="10" y="1562"></tspan>
<tspan x="10" y="1578">browserTest - merged coverage from /home/travis/build/npmdoc/node-npmdoc-horizon/tmp/coverage.np\</tspan>
<tspan x="10" y="1594">mTest.browser.%2F.json</tspan>
<tspan x="10" y="1610"></tspan>
<tspan x="10" y="1626"></tspan>
<tspan x="10" y="1642">browserTest - merging test-report from /home/travis/build/npmdoc/node-npmdoc-horizon/tmp/test-re\</tspan>
<tspan x="10" y="1658">port.npmTest.browser.%2F.json</tspan>
<tspan x="10" y="1674"></tspan>
<tspan x="10" y="1690">[node test-case 6 of 6 passed] - testCase_webpage_default</tspan>
<tspan x="10" y="1706">----------------------------|-----------|-----------|-----------|-----------|</tspan>
<tspan x="10" y="1722">File                        |   % Stmts |% Branches |   % Funcs |   % Lines |</tspan>
<tspan x="10" y="1738">----------------------------|-----------|-----------|-----------|-----------|</tspan>
<tspan x="10" y="1754">   node-npmdoc-horizon/     |       100 |       100 |       100 |       100 |</tspan>
<tspan x="10" y="1770">      example.js            |       100 |       100 |       100 |       100 |</tspan>
<tspan x="10" y="1786">      lib.npmdoc_horizon.js |       100 |       100 |       100 |       100 |</tspan>
<tspan x="10" y="1802">      test.js               |       100 |       100 |       100 |       100 |</tspan>
<tspan x="10" y="1818">----------------------------|-----------|-----------|-----------|-----------|</tspan>
<tspan x="10" y="1834">All files                   |       100 |       100 |       100 |       100 |</tspan>
<tspan x="10" y="1850">----------------------------|-----------|-----------|-----------|-----------|</tspan>
<tspan x="10" y="1866"></tspan>
<tspan x="10" y="1882">created coverage file:///home/travis/build/npmdoc/node-npmdoc-horizon/tmp/build/coverage.html/in\</tspan>
<tspan x="10" y="1898">dex.html</tspan>
<tspan x="10" y="1914">merging file:///home/travis/build/npmdoc/node-npmdoc-horizon/tmp/build/test-report.json to test-\</tspan>
<tspan x="10" y="1930">report</tspan>
<tspan x="10" y="1946"></tspan>
<tspan x="10" y="1962">-------------------------------------------------------</tspan>
<tspan x="10" y="1978">| test-report - buildNpmdoc - node - linux v6.10.2 - 2017-04-07T02:52:58.418Z</tspan>
<tspan x="10" y="1994">|   36279 ms            0 failed        6 passed      |</tspan>
<tspan x="10" y="2010">-------------------------------------------------------</tspan>
<tspan x="10" y="2026"></tspan>
<tspan x="10" y="2042">created test-report file:///home/travis/build/npmdoc/node-npmdoc-horizon/tmp/build/test-report.h\</tspan>
<tspan x="10" y="2058">tml</tspan>
<tspan x="10" y="2074"></tspan>
<tspan x="10" y="2090"></tspan>
<tspan x="10" y="2106">npmTest - 0 failed tests</tspan>
<tspan x="10" y="2122"></tspan>
<tspan x="10" y="2138"></tspan>
<tspan x="10" y="2154">[MODE_BUILD=npmTest] - 2017-04-07T02:53:37Z - EXIT_CODE - 0</tspan>
</text>
</svg>
